<svg width="198" height="30" viewBox="0 0 198 30" fill="none" xmlns="http://www.w3.org/2000/svg">
<path d="M196.707 15.7071C197.098 15.3166 197.098 14.6834 196.707 14.2929L190.343 7.92895C189.953 7.53842 189.319 7.53842 188.929 7.92895C188.538 8.31947 188.538 8.95264 188.929 9.34316L194.586 15L188.929 20.6569C188.538 21.0474 188.538 21.6806 188.929 22.0711C189.319 22.4616 189.953 22.4616 190.343 22.0711L196.707 15.7071ZM-8.74228e-08 16L3.0625 16L3.0625 14L8.74228e-08 14L-8.74228e-08 16ZM9.1875 16L15.3125 16L15.3125 14L9.1875 14L9.1875 16ZM21.4375 16L27.5625 16L27.5625 14L21.4375 14L21.4375 16ZM33.6875 16L39.8125 16L39.8125 14L33.6875 14L33.6875 16ZM45.9375 16L52.0625 16L52.0625 14L45.9375 14L45.9375 16ZM58.1875 16L64.3125 16L64.3125 14L58.1875 14L58.1875 16ZM70.4375 16L76.5625 16L76.5625 14L70.4375 14L70.4375 16ZM82.6875 16L88.8125 16L88.8125 14L82.6875 14L82.6875 16ZM94.9375 16L101.062 16L101.063 14L94.9375 14L94.9375 16ZM107.187 16L113.312 16L113.313 14L107.188 14L107.187 16ZM119.437 16L125.562 16L125.563 14L119.438 14L119.437 16ZM131.687 16L137.812 16L137.813 14L131.688 14L131.687 16ZM143.937 16L150.062 16L150.063 14L143.938 14L143.937 16ZM156.187 16L162.312 16L162.313 14L156.188 14L156.187 16ZM168.437 16L174.562 16L174.563 14L168.438 14L168.437 16ZM180.687 16L186.812 16L186.813 14L180.688 14L180.687 16ZM192.937 16L196 16L196 14L192.938 14L192.937 16ZM197.414 16.4142C198.195 15.6332 198.195 14.3669 197.414 13.5858L184.686 0.857881C183.905 0.0768317 182.639 0.0768316 181.858 0.85788C181.077 1.63893 181.077 2.90526 181.858 3.68631L193.172 15L181.858 26.3137C181.077 27.0948 181.077 28.3611 181.858 29.1422C182.639 29.9232 183.905 29.9232 184.686 29.1422L197.414 16.4142ZM-1.74846e-07 17L3.0625 17L3.0625 13L1.74846e-07 13L-1.74846e-07 17ZM9.1875 17L15.3125 17L15.3125 13L9.1875 13L9.1875 17ZM21.4375 17L27.5625 17L27.5625 13L21.4375 13L21.4375 17ZM33.6875 17L39.8125 17L39.8125 13L33.6875 13L33.6875 17ZM45.9375 17L52.0625 17L52.0625 13L45.9375 13L45.9375 17ZM58.1875 17L64.3125 17L64.3125 13L58.1875 13L58.1875 17ZM70.4375 17L76.5625 17L76.5625 13L70.4375 13L70.4375 17ZM82.6875 17L88.8125 17L88.8125 13L82.6875 13L82.6875 17ZM94.9375 17L101.062 17L101.063 13L94.9375 13L94.9375 17ZM107.187 17L113.312 17L113.313 13L107.188 13L107.187 17ZM119.437 17L125.562 17L125.563 13L119.438 13L119.437 17ZM131.687 17L137.812 17L137.813 13L131.688 13L131.687 17ZM143.937 17L150.062 17L150.063 13L143.938 13L143.937 17ZM156.187 17L162.312 17L162.313 13L156.188 13L156.187 17ZM168.437 17L174.562 17L174.563 13L168.438 13L168.437 17ZM180.687 17L186.812 17L186.813 13L180.688 13L180.687 17ZM192.937 17L196 17L196 13L192.938 13L192.937 17Z" fill="#FF8A00"/>
</svg>
