<svg width="11" height="23" viewBox="0 0 11 23" fill="none" xmlns="http://www.w3.org/2000/svg">
<path d="M3.06322 5.21183C3.06322 5.7648 3.06322 8.23073 3.06322 8.23073H0.919922V11.9222H3.06322V22.04H7.46567V11.9147H10.42C10.42 11.9147 10.6951 10.1437 10.8327 8.20831C10.4489 8.20831 7.4874 8.20831 7.4874 8.20831C7.4874 8.20831 7.4874 6.0637 7.4874 5.6826C7.4874 5.30897 7.96529 4.80084 8.44319 4.80084C8.91385 4.80084 9.91309 4.80084 10.8399 4.80084C10.8399 4.30018 10.8399 2.55908 10.8399 0.959961C9.60173 0.959961 8.197 0.959961 7.58153 0.959961C2.95461 0.967433 3.06322 4.65886 3.06322 5.21183Z" fill="white"/>
</svg>
