<svg width="22" height="21" viewBox="0 0 22 21" fill="none" xmlns="http://www.w3.org/2000/svg">
<path d="M11.0057 4.91287C7.91654 4.91287 5.42483 7.22137 5.42483 10.0834C5.42483 12.9454 7.91654 15.2539 11.0057 15.2539C14.0948 15.2539 16.5865 12.9454 16.5865 10.0834C16.5865 7.22137 14.0948 4.91287 11.0057 4.91287ZM11.0057 13.4449C9.0094 13.4449 7.3774 11.9374 7.3774 10.0834C7.3774 8.22937 9.00454 6.72187 11.0057 6.72187C13.0068 6.72187 14.634 8.22937 14.634 10.0834C14.634 11.9374 13.002 13.4449 11.0057 13.4449ZM18.1165 4.70137C18.1165 5.37187 17.5337 5.90737 16.8148 5.90737C16.0911 5.90737 15.5131 5.36737 15.5131 4.70137C15.5131 4.03537 16.096 3.49537 16.8148 3.49537C17.5337 3.49537 18.1165 4.03537 18.1165 4.70137ZM21.8128 5.92537C21.7303 4.30987 21.332 2.87887 20.0545 1.69987C18.782 0.520875 17.2374 0.151875 15.4937 0.070875C13.6965 -0.023625 8.30997 -0.023625 6.51283 0.070875C4.77397 0.147375 3.2294 0.516375 1.95197 1.69537C0.674545 2.87437 0.281116 4.30537 0.193687 5.92087C0.0916875 7.58587 0.0916875 12.5764 0.193687 14.2414C0.276259 15.8569 0.674545 17.2879 1.95197 18.4669C3.2294 19.6459 4.76911 20.0149 6.51283 20.0959C8.30997 20.1904 13.6965 20.1904 15.4937 20.0959C17.2374 20.0194 18.782 19.6504 20.0545 18.4669C21.3271 17.2879 21.7254 15.8569 21.8128 14.2414C21.9148 12.5764 21.9148 7.59037 21.8128 5.92537ZM19.4911 16.0279C19.1123 16.9099 18.3788 17.5894 17.422 17.9449C15.9891 18.4714 12.5891 18.3499 11.0057 18.3499C9.42226 18.3499 6.0174 18.4669 4.5894 17.9449C3.6374 17.5939 2.90397 16.9144 2.52026 16.0279C1.95197 14.7004 2.08312 11.5504 2.08312 10.0834C2.08312 8.61637 1.95683 5.46187 2.52026 4.13887C2.89912 3.25687 3.63254 2.57737 4.5894 2.22187C6.02226 1.69537 9.42226 1.81687 11.0057 1.81687C12.5891 1.81687 15.994 1.69987 17.422 2.22187C18.374 2.57287 19.1074 3.25237 19.4911 4.13887C20.0594 5.46637 19.9283 8.61637 19.9283 10.0834C19.9283 11.5504 20.0594 14.7049 19.4911 16.0279Z" fill="white"/>
</svg>
