<svg width="21" height="21" viewBox="0 0 21 21" fill="none" xmlns="http://www.w3.org/2000/svg">
<path d="M20.4809 16.6669L20.3795 16.3613C20.1394 15.6474 19.3522 14.9028 18.6291 14.7066L15.9527 13.9754C15.2269 13.7779 14.1916 14.0434 13.6606 14.5745L12.692 15.5433C9.17179 14.5919 6.41141 11.8309 5.46148 8.31077L6.43015 7.34192C6.96117 6.8108 7.22664 5.77666 7.02918 5.05074L6.29938 2.37256C6.10192 1.64796 5.35611 0.860681 4.64369 0.623133L4.33817 0.520394C3.62438 0.282847 2.6064 0.523084 2.07543 1.05416L0.626498 2.50468C0.367648 2.76221 0.202212 3.49881 0.202212 3.5015C0.151535 8.10256 1.95533 12.5355 5.20933 15.7901C8.45535 19.0367 12.8708 20.8382 17.4577 20.7995C17.4817 20.7995 18.2395 20.6367 18.4983 20.3791L19.9473 18.9299C20.4782 18.3989 20.7184 17.3808 20.4809 16.6669Z" fill="white"/>
</svg>
