<svg width="18" height="15" viewBox="0 0 18 15" fill="none" xmlns="http://www.w3.org/2000/svg">
<path d="M4.52577 8.81422L0.74337 7.5817C0.74337 7.5817 0.291899 7.39846 0.436916 6.98246C0.466865 6.89668 0.527157 6.82378 0.707772 6.69781C1.54609 6.11367 16.2215 0.838798 16.2215 0.838798C16.2215 0.838798 16.6359 0.699298 16.8809 0.792035C16.9928 0.834463 17.0642 0.882407 17.1244 1.05737C17.1463 1.12108 17.159 1.25651 17.1572 1.39128C17.1559 1.48848 17.1441 1.57846 17.1354 1.71967C17.0461 3.16196 14.3717 13.925 14.3717 13.925C14.3717 13.925 14.2117 14.5549 13.6383 14.5763C13.4292 14.5842 13.1754 14.5417 12.872 14.2807C11.7469 13.3129 7.85788 10.6993 6.99868 10.1246C6.95008 10.0923 6.93642 10.0502 6.92815 10.009C6.91606 9.94861 6.98069 9.87321 6.98069 9.87321C6.98069 9.87321 13.7524 3.85382 13.9326 3.22225C13.9465 3.17326 13.8941 3.14909 13.823 3.17024C13.3733 3.33575 5.57649 8.25898 4.71611 8.80279C4.6658 8.83458 4.52472 8.81409 4.52472 8.81409" fill="white"/>
</svg>
