<svg width="19" height="19" viewBox="0 0 19 19" fill="none" xmlns="http://www.w3.org/2000/svg">
<path d="M13.6302 7.53537C13.5549 6.92292 13.3666 6.44204 13.0323 6.01604C12.5982 5.46754 12.0435 5.13913 11.2222 4.94428C10.6869 4.81441 10.4707 4.82933 10.2771 5.00616C10.0968 5.17181 10.0616 5.5039 10.1994 5.71903C10.2963 5.87512 10.4081 5.93099 10.719 5.99202C11.1331 6.06823 11.4192 6.16711 11.6795 6.31591C12.2319 6.63495 12.4892 7.13411 12.5168 7.94231C12.5297 8.32173 12.5625 8.43837 12.695 8.57296C12.9406 8.81896 13.3778 8.77117 13.5633 8.47673C13.6313 8.36578 13.6417 8.31747 13.6488 8.05985C13.6536 7.90033 13.6467 7.66286 13.6302 7.53537Z" fill="white"/>
<path d="M15.7938 8.22652C15.6847 6.35012 14.9508 4.84048 13.6373 3.77834C12.8972 3.18146 12.0027 2.7711 11.0222 2.57154C10.6629 2.50011 10.0017 2.44231 9.88821 2.47537C9.78113 2.50605 9.62975 2.62191 9.56226 2.7268C9.49083 2.84046 9.47474 3.09428 9.53565 3.24107C9.63394 3.48649 9.81671 3.57323 10.3287 3.61805C11.118 3.68709 11.9321 3.96434 12.5472 4.3749C13.2494 4.84229 13.8076 5.4816 14.1687 6.23283C14.4808 6.87834 14.6727 7.80854 14.6674 8.64153C14.6656 8.94275 14.7121 9.11293 14.8332 9.23731C15.0161 9.42854 15.2827 9.47039 15.518 9.34336C15.7787 9.20625 15.8397 8.96555 15.7938 8.22652Z" fill="white"/>
<path d="M18.9092 15.1668C18.8718 15.0569 18.7845 14.8874 18.7222 14.79C18.3294 14.1935 16.2189 12.5327 15.1652 11.9896C14.5636 11.6788 14.1178 11.5752 13.7874 11.6724C13.432 11.773 13.2449 11.9393 12.6495 12.6834C12.4095 12.9817 12.1632 13.2611 12.0977 13.3051C11.9356 13.4181 11.6176 13.5092 11.3932 13.5092C10.8726 13.506 9.92805 13.1669 9.20166 12.7211C8.63744 12.3757 7.91422 11.7573 7.35928 11.145C6.70463 10.4261 6.25887 9.79188 5.90657 9.07607C5.45147 8.15621 5.33609 7.5942 5.52623 7.18288C5.57302 7.07931 5.63542 6.96945 5.66339 6.9349C5.69149 6.90353 5.98456 6.66177 6.30869 6.39804C6.94471 5.88943 7.04758 5.77329 7.16598 5.42478C7.31564 4.98209 7.27517 4.53 7.04442 4.07481C6.86673 3.72941 6.40228 2.97593 6.06557 2.4893C5.61982 1.84887 4.51 0.480036 4.2886 0.294729C3.88964 -0.0317441 3.3784 -0.088263 2.81411 0.131525C2.21876 0.363822 1.10269 1.26806 0.625707 1.8991C0.195509 2.47051 0.0303364 2.87547 0.00537323 3.40916C-0.0164309 3.84873 0.0209647 4.0308 0.251655 4.59281C2.0566 9.00069 4.75002 12.5201 8.4504 15.3144C10.3832 16.7742 12.3876 17.8857 14.467 18.6455C15.6796 19.0881 16.2064 19.1101 16.8268 18.746C17.0887 18.5889 17.737 17.9202 18.0987 17.4336C18.6972 16.6235 18.9186 16.25 18.9809 15.9517C19.0246 15.7476 18.9903 15.3929 18.9092 15.1668Z" fill="white"/>
<path d="M17.997 8.65742C17.9578 7.59605 17.7791 6.72547 17.4064 5.75478C17.0385 4.80005 16.6662 4.17695 15.963 3.33426C15.2983 2.54415 14.7819 2.09297 13.963 1.59084C12.8204 0.89114 11.4299 0.42809 9.87167 0.233359C9.34028 0.165301 9.22002 0.170164 9.05702 0.278948C8.74107 0.48504 8.74527 0.998994 9.06218 1.20198C9.16713 1.26656 9.26019 1.29014 9.68528 1.34574C10.3378 1.43358 10.7574 1.51637 11.2553 1.65225C13.2077 2.18591 14.709 3.27685 15.7128 4.89628C16.5527 6.246 16.9014 7.59592 16.852 9.31998C16.8347 9.90278 16.8472 10.0053 16.9363 10.1454C17.1069 10.4064 17.5569 10.4581 17.7877 10.2415C17.9313 10.1094 17.9584 10.0104 17.9867 9.51153C18.0003 9.25126 18.0032 8.86712 17.997 8.65742Z" fill="white"/>
</svg>
